<svg width="220" height="74" viewBox="0 0 220 74" fill="none" xmlns="http://www.w3.org/2000/svg">
<path d="M207.435 20.5996V35.4878L185.883 35.4917V20.5996H179.34V42.72H180.103C187.883 42.7162 195.662 42.7085 203.441 42.6969C204.953 42.6949 206.465 42.6904 207.977 42.6859C210.027 42.6798 212.077 42.6737 214.128 42.6739V45.2385H220.001V35.4272H214.19C214.106 35.2976 214.106 35.0651 214.106 34.6479V21.48C214.106 21.2676 214.093 21.0533 214.08 20.8504C214.075 20.7644 214.07 20.6805 214.066 20.5996H207.435Z" fill="#00578A"/>
<path d="M131.682 29.3056V42.6516H125.078V20.6069C126.813 20.6069 128.524 20.6069 130.233 20.6165C130.471 20.6531 130.701 20.7331 130.91 20.8528C136.804 23.3592 142.695 25.8726 148.581 28.3931C148.816 28.5044 149.074 28.56 149.334 28.5557C149.594 28.5514 149.85 28.4872 150.081 28.3682C155.783 25.8438 161.493 23.3368 167.21 20.847C167.562 20.6978 167.939 20.6176 168.321 20.6107C169.865 20.5857 171.408 20.6107 173.01 20.6107V42.6804H166.439V29.3787C166.08 29.5227 165.837 29.6111 165.604 29.7149C160.454 31.9946 155.306 34.2794 150.162 36.5693C149.933 36.6897 149.679 36.7552 149.421 36.7605C149.162 36.7658 148.906 36.711 148.673 36.6001C143.311 34.2666 137.94 31.9497 132.562 29.6495C132.302 29.5285 132.033 29.4401 131.682 29.3056Z" fill="#00578A"/>
<path d="M84.1484 20.5996H119.003V21.6744C119.003 23.3924 118.967 25.1104 119.019 26.8285C119.041 27.552 118.787 27.7047 118.108 27.7028C109.339 27.6824 100.569 27.6779 91.7994 27.6894H90.7476V42.4111H84.1484V20.5996Z" fill="#00578A"/>
<path d="M84.0156 53.5857V49.1426H87.247V49.7878H84.8382V53.5857H84.0156Z" fill="#151515"/>
<path d="M90.0771 53.5858C89.6792 53.5956 89.2859 53.5 88.9381 53.309C88.6162 53.1229 88.3561 52.8482 88.1897 52.5186C88.0038 52.14 87.9123 51.7231 87.9228 51.3025C87.9113 50.8787 88.0028 50.4584 88.1897 50.0768C88.3561 49.7471 88.6162 49.4725 88.9381 49.2864C89.2856 49.0945 89.6791 48.9989 90.0771 49.0096C90.4762 48.9996 90.8708 49.0952 91.2199 49.2864C91.5427 49.4709 91.8025 49.746 91.9664 50.0768C92.1502 50.4559 92.2403 50.8727 92.2294 51.2929C92.2408 51.7163 92.1507 52.1362 91.9664 52.5186C91.8025 52.8493 91.5427 53.1245 91.2199 53.309C90.8704 53.4993 90.4761 53.5948 90.0771 53.5858ZM90.0771 52.952C90.2599 52.9585 90.4418 52.9241 90.6093 52.8514C90.7767 52.7787 90.9253 52.6695 91.044 52.532C91.2876 52.2494 91.4094 51.8364 91.4094 51.2929C91.4094 50.7495 91.2876 50.3396 91.044 50.0635C90.924 49.928 90.775 49.8206 90.6077 49.7493C90.4405 49.678 90.2592 49.6444 90.0771 49.651C89.8949 49.6441 89.7136 49.6776 89.5462 49.7489C89.3789 49.8203 89.2299 49.9278 89.1102 50.0635C88.8704 50.3384 88.7505 50.7482 88.7505 51.2929C88.7505 51.8377 88.8704 52.2507 89.1102 52.532C89.2286 52.6697 89.3772 52.779 89.5447 52.8518C89.7122 52.9245 89.8942 52.9588 90.0771 52.952Z" fill="#151515"/>
<path d="M93.5144 55.4715V50.1459C93.5144 49.9742 93.5144 49.7986 93.4946 49.6211C93.4749 49.4436 93.4651 49.2661 93.4414 49.0886H94.2301L94.3287 50.1189H94.2301C94.313 49.7869 94.5197 49.4971 94.8097 49.3066C95.1237 49.1031 95.4941 48.9993 95.8705 49.0095C96.2436 49.0013 96.6115 49.097 96.9312 49.2854C97.2406 49.4761 97.4855 49.7519 97.6351 50.0784C97.8096 50.4685 97.8944 50.8914 97.8836 51.3172C97.8943 51.7441 97.8095 52.1682 97.6351 52.5598C97.4868 52.8885 97.2417 53.1666 96.9312 53.3586C96.6115 53.547 96.2436 53.6427 95.8705 53.6345C95.4986 53.6431 95.133 53.5394 94.8235 53.3374C94.5361 53.1453 94.3267 52.8606 94.232 52.5328H94.3306V55.4715H93.5144ZM95.6832 52.9939C95.8714 53.0015 96.059 52.9671 96.2318 52.8936C96.4045 52.8201 96.5581 52.7093 96.6808 52.5694C96.928 52.2839 97.0515 51.8664 97.0515 51.3172C97.0515 50.7679 96.928 50.3537 96.6808 50.0746C96.5568 49.9368 96.4028 49.8278 96.2302 49.7557C96.0576 49.6836 95.8707 49.6501 95.6832 49.6578C95.4975 49.6508 95.3126 49.6846 95.142 49.7567C94.9714 49.8288 94.8194 49.9375 94.6974 50.0746C94.4529 50.3524 94.3306 50.7666 94.3306 51.3172C94.3306 51.8677 94.4529 52.2852 94.6974 52.5694C94.819 52.7097 94.9717 52.8208 95.1439 52.8944C95.3162 52.968 95.5033 53.002 95.6911 52.9939H95.6832Z" fill="#151515"/>
<path d="M100.981 53.5849C100.584 53.5944 100.19 53.4988 99.8424 53.3081C99.5217 53.1211 99.2625 52.8466 99.096 52.5176C98.9101 52.1391 98.8186 51.7221 98.8291 51.3015C98.8175 50.8778 98.9091 50.4574 99.096 50.0758C99.2625 49.7468 99.5217 49.4724 99.8424 49.2854C100.19 49.0938 100.583 48.9982 100.981 49.0086C101.381 48.9984 101.775 49.094 102.124 49.2854C102.448 49.4699 102.708 49.745 102.873 50.0758C103.056 50.4551 103.146 50.8718 103.136 51.292C103.146 51.7152 103.056 52.1349 102.873 52.5176C102.708 52.8485 102.448 53.1236 102.124 53.3081C101.775 53.4986 101.381 53.5941 100.981 53.5849ZM100.981 52.951C101.164 52.9576 101.346 52.9232 101.514 52.8504C101.681 52.7777 101.83 52.6685 101.948 52.531C102.191 52.2485 102.312 51.8354 102.312 51.292C102.312 50.7485 102.191 50.3386 101.948 50.0625C101.828 49.9271 101.679 49.8199 101.512 49.7485C101.345 49.6772 101.164 49.6435 100.981 49.65C100.799 49.643 100.618 49.6764 100.451 49.7477C100.283 49.8191 100.134 49.9267 100.015 50.0625C99.7735 50.3374 99.6529 50.7472 99.6529 51.292C99.6529 51.8367 99.7735 52.2497 100.015 52.531C100.133 52.6688 100.281 52.7783 100.449 52.8511C100.616 52.9238 100.799 52.958 100.981 52.951Z" fill="#151515"/>
<path d="M104.078 54.6628V52.9112H104.566C104.777 52.5915 104.926 52.2369 105.007 51.8648C105.105 51.3939 105.15 50.9141 105.144 50.4335V49.1426H108.349V52.9112H109.06V54.6628H108.367V53.5254H104.771V54.6628H104.078ZM105.331 52.9188H107.595V49.7568H105.858V50.5776C105.859 51.0094 105.814 51.4402 105.725 51.8629C105.648 52.2338 105.512 52.5902 105.321 52.9188H105.331Z" fill="#151515"/>
<path d="M112.095 53.5858C111.683 53.5959 111.277 53.5004 110.916 53.309C110.583 53.1223 110.314 52.8439 110.143 52.509C109.95 52.1222 109.856 51.6958 109.868 51.2661C109.856 50.8444 109.951 50.4264 110.147 50.0499C110.326 49.723 110.599 49.4542 110.933 49.2767C111.292 49.0924 111.693 49.0004 112.099 49.0094C112.391 49.0087 112.682 49.0578 112.957 49.1545C113.214 49.2387 113.447 49.3814 113.635 49.5707L113.356 50.1339C113.191 49.9751 112.993 49.851 112.776 49.7693C112.578 49.693 112.367 49.6528 112.154 49.6509C111.958 49.641 111.762 49.6732 111.581 49.7452C111.4 49.8171 111.237 49.927 111.104 50.0671C110.851 50.3458 110.725 50.7487 110.725 51.2756C110.695 51.7165 110.829 52.1531 111.104 52.5051C111.235 52.6488 111.397 52.7621 111.578 52.8365C111.76 52.9108 111.957 52.9444 112.154 52.9347C112.364 52.9324 112.572 52.8936 112.769 52.8202C112.988 52.7406 113.189 52.6185 113.358 52.4612L113.637 53.0149C113.445 53.2088 113.208 53.3549 112.945 53.4407C112.672 53.536 112.385 53.585 112.095 53.5858Z" fill="#151515"/>
<path d="M114.711 53.5857V49.1426H115.512V50.9801H116.328L117.775 49.1426H118.661L116.98 51.3008L116.767 51.055C116.923 51.0676 117.075 51.1106 117.214 51.1817C117.35 51.26 117.472 51.3599 117.575 51.4774C117.716 51.6406 117.843 51.8153 117.954 51.9997L118.885 53.5799H118.008L117.194 52.2109C117.122 52.0758 117.032 51.9511 116.926 51.8403C116.843 51.7537 116.741 51.6879 116.627 51.6483C116.492 51.6104 116.351 51.5929 116.211 51.5965H115.512V53.5742L114.711 53.5857Z" fill="#151515"/>
<path d="M121.713 53.5858C121.315 53.5956 120.921 53.5 120.573 53.309C120.251 53.1229 119.991 52.8482 119.825 52.5186C119.639 52.1399 119.549 51.7229 119.56 51.3025C119.548 50.8789 119.638 50.4586 119.825 50.0768C119.991 49.7471 120.251 49.4725 120.573 49.2864C120.921 49.0945 121.315 48.9989 121.713 49.0096C122.112 48.9994 122.507 49.095 122.856 49.2864C123.179 49.4709 123.439 49.746 123.603 50.0768C123.787 50.4559 123.877 50.8727 123.866 51.2929C123.877 51.7163 123.787 52.1362 123.603 52.5186C123.439 52.8493 123.179 53.1245 122.856 53.309C122.507 53.4995 122.112 53.5951 121.713 53.5858ZM121.713 52.952C121.896 52.9585 122.078 52.9241 122.245 52.8514C122.413 52.7787 122.561 52.6695 122.68 52.532C122.924 52.2494 123.046 51.8364 123.046 51.2929C123.046 50.7495 122.924 50.3396 122.68 50.0635C122.56 49.928 122.411 49.8206 122.244 49.7493C122.076 49.678 121.895 49.6444 121.713 49.651C121.531 49.6441 121.349 49.6776 121.182 49.7489C121.014 49.8203 120.865 49.9278 120.746 50.0635C120.506 50.3384 120.386 50.7482 120.386 51.2929C120.386 51.8377 120.506 52.2507 120.746 52.532C120.864 52.6697 121.013 52.779 121.18 52.8518C121.348 52.9245 121.53 52.9588 121.713 52.952Z" fill="#151515"/>
<path d="M125.078 53.5763V49.1228H125.834V52.8258H125.586L128.427 49.1324H129.117V53.586H128.362V49.8849H128.617L125.768 53.586L125.078 53.5763ZM127.098 48.7167C126.852 48.7195 126.608 48.6744 126.38 48.5839C126.166 48.4985 125.974 48.3669 125.82 48.199C125.656 48.0162 125.536 47.7998 125.47 47.5658L125.943 47.3964C126.024 47.6433 126.179 47.861 126.388 48.0219C126.597 48.1578 126.846 48.2252 127.098 48.2144C127.352 48.2221 127.602 48.155 127.816 48.0219C128.035 47.8585 128.205 47.6412 128.308 47.3926L128.753 47.5523C128.638 47.9063 128.406 48.2138 128.095 48.428C127.799 48.6186 127.452 48.7192 127.098 48.7167Z" fill="#151515"/>
<path d="M133.023 53.5857V49.1426H133.705L135.378 52.0496L137.058 49.1426H137.736V53.5857H137.013V50.045H137.209L135.58 52.8714H135.175L133.548 50.0354H133.745V53.5857H133.023Z" fill="#151515"/>
<path d="M141.243 53.5865C140.535 53.5865 139.975 53.3841 139.564 52.9793C139.154 52.5764 138.95 52.0247 138.95 51.3106C138.939 50.8894 139.031 50.472 139.22 50.0943C139.388 49.7635 139.648 49.4867 139.969 49.2963C140.306 49.1005 140.692 49.0014 141.083 49.0099C141.446 48.9978 141.806 49.0878 142.119 49.2695C142.405 49.4426 142.631 49.6985 142.766 50.0027C142.922 50.357 142.997 50.7409 142.988 51.1273V51.3908H139.578V50.9154H142.439L142.289 51.0299C142.312 50.6511 142.204 50.2758 141.982 49.9664C141.873 49.8376 141.735 49.7359 141.579 49.6696C141.423 49.6033 141.253 49.5742 141.083 49.5846C140.893 49.5745 140.703 49.6094 140.529 49.6864C140.355 49.7634 140.202 49.8803 140.082 50.0275C139.832 50.379 139.708 50.8043 139.732 51.2342V51.3144C139.732 51.8528 139.867 52.2595 140.136 52.5345C140.284 52.6765 140.46 52.7865 140.653 52.8575C140.846 52.9285 141.051 52.9589 141.257 52.9469C141.509 52.9495 141.76 52.9114 142 52.8342C142.244 52.7497 142.469 52.6201 142.664 52.4523L142.93 53.0061C142.713 53.1966 142.457 53.3397 142.181 53.4261C141.879 53.5311 141.563 53.5854 141.243 53.5865Z" fill="#151515"/>
<path d="M143.797 54.6628V52.9112H144.297C144.513 52.5915 144.666 52.2369 144.749 51.8648C144.849 51.3939 144.896 50.9141 144.889 50.4335V49.1426H148.185V52.9112H148.913V54.6628H148.185V53.5254H144.517V54.6628H143.797ZM145.081 52.9188H147.394V49.7568H145.613V50.5776C145.614 51.0094 145.568 51.4402 145.477 51.8629C145.404 52.2328 145.271 52.5892 145.081 52.9188Z" fill="#151515"/>
<path d="M149.855 53.5761V49.1426H150.611V52.8289H150.366L153.204 49.1522H153.895V53.5857H153.139V49.9013H153.394L150.548 53.5857L149.855 53.5761Z" fill="#151515"/>
<path d="M159.263 54.7974V53.6331H155.375V49.1426H156.18V53.0005H158.433V49.1426H159.237V53.0005H159.953V54.7936L159.263 54.7974Z" fill="#151515"/>
<path d="M161.027 53.5761V49.1426H161.783V52.8289H161.537L164.375 49.1522H165.067V53.5857H164.311V49.9013H164.566L161.719 53.5857L161.027 53.5761Z" fill="#151515"/>
<path d="M166.547 53.5857V49.1426H167.367V50.9801H169.772V49.1426H170.586V53.5857H169.772V51.6156H167.367V53.5857H166.547Z" fill="#151515"/>
<path d="M174.034 53.5848C173.622 53.5949 173.214 53.4994 172.853 53.308C172.519 53.1219 172.249 52.8433 172.079 52.508C171.885 52.1214 171.79 51.695 171.802 51.2651C171.79 50.8433 171.886 50.4252 172.083 50.0489C172.26 49.724 172.53 49.4555 172.861 49.2757C173.22 49.0914 173.623 48.9994 174.03 49.0084C174.323 49.0077 174.614 49.0568 174.89 49.1535C175.147 49.2377 175.38 49.3804 175.569 49.5697L175.287 50.1329C175.122 49.9745 174.925 49.8505 174.709 49.7683C174.509 49.6918 174.297 49.6516 174.083 49.6499C173.887 49.6403 173.692 49.6727 173.51 49.7446C173.329 49.8165 173.166 49.9263 173.034 50.0661C172.779 50.3448 172.653 50.7477 172.654 51.2746C172.624 51.7155 172.759 52.1521 173.034 52.5042C173.164 52.6477 173.326 52.7609 173.508 52.8352C173.689 52.9096 173.886 52.9433 174.083 52.9337C174.294 52.9319 174.502 52.8931 174.699 52.8192C174.919 52.7401 175.12 52.6179 175.289 52.4603L175.571 53.014C175.378 53.2079 175.141 53.3539 174.878 53.4397C174.607 53.5338 174.321 53.5829 174.034 53.5848Z" fill="#151515"/>
<path d="M176.648 53.5857V49.1426H177.463V50.9801H178.277L179.724 49.1426H180.609L178.92 51.3008L178.704 51.055C178.86 51.0671 179.012 51.1102 179.151 51.1817C179.288 51.2594 179.411 51.3594 179.515 51.4774C179.654 51.6416 179.781 51.8162 179.893 51.9997L180.822 53.5799H179.948L179.134 52.2109C179.062 52.0758 178.972 51.9511 178.866 51.8403C178.783 51.7537 178.68 51.6879 178.566 51.6483C178.431 51.6105 178.291 51.593 178.15 51.5965H177.463V53.5742L176.648 53.5857Z" fill="#151515"/>
<path d="M181.629 53.5761V49.1426H182.384V52.8289H182.139L184.976 49.1522H185.668V53.5857H184.923V49.9013H185.178L182.331 53.5857L181.629 53.5761Z" fill="#151515"/>
<path d="M187.148 53.5763V49.1283H187.903V52.8267H187.662L190.496 49.138H191.188V53.586H190.427V49.8895H190.682L187.838 53.586L187.148 53.5763ZM189.165 48.7227C188.921 48.7273 188.679 48.6849 188.452 48.5978C188.238 48.5121 188.047 48.3807 187.893 48.2134C187.731 48.0299 187.611 47.814 187.543 47.581L188.016 47.4118C188.098 47.6517 188.249 47.8633 188.452 48.0211C188.66 48.1574 188.908 48.2248 189.159 48.2134C189.413 48.2213 189.664 48.1543 189.878 48.0211C190.097 47.8583 190.266 47.6412 190.368 47.3926L190.814 47.5521C190.698 47.9059 190.467 48.213 190.155 48.4268C189.862 48.6188 189.518 48.7218 189.165 48.7227Z" fill="#151515"/>
<path d="M198.983 54.7974V53.6331H195.094V49.1426H195.899V53.0005H198.151V49.1426H198.956V53.0005H199.671V54.7936L198.983 54.7974Z" fill="#151515"/>
<path d="M202.772 53.5865C202.063 53.5865 201.504 53.3843 201.094 52.9801C200.682 52.5777 200.478 52.0266 200.478 51.3134C200.465 50.8913 200.557 50.4726 200.743 50.093C200.913 49.7629 201.172 49.4867 201.493 49.2959C201.831 49.1001 202.218 49.001 202.61 49.0099C202.973 48.9978 203.332 49.0877 203.646 49.2692C203.932 49.4432 204.157 49.6984 204.293 50.0015C204.448 50.3556 204.524 50.7388 204.515 51.1246V51.3878H201.108V50.913H203.968L203.818 51.0274C203.841 50.6491 203.733 50.2742 203.511 49.9652C203.402 49.8366 203.264 49.7351 203.108 49.6688C202.953 49.6026 202.783 49.5735 202.614 49.5839C202.423 49.5736 202.233 49.6084 202.059 49.6853C201.885 49.7623 201.732 49.8791 201.612 50.0262C201.359 50.3762 201.234 50.8014 201.258 51.2314V51.3115C201.258 51.8493 201.391 52.265 201.66 52.5301C201.808 52.6716 201.984 52.7812 202.177 52.8521C202.37 52.923 202.576 52.9536 202.781 52.9419C203.034 52.9447 203.285 52.9067 203.525 52.8295C203.769 52.745 203.994 52.6156 204.189 52.4481L204.455 53.0011C204.238 53.1909 203.984 53.3338 203.708 53.4206C203.407 53.527 203.091 53.5831 202.772 53.5865Z" fill="#151515"/>
<path d="M205.73 53.5857V49.1426H206.539V50.9801H208.953V49.1426H209.77V53.5857H208.953V51.6156H206.539V53.5857H205.73Z" fill="#151515"/>
<path d="M212.197 53.5857V49.7878H210.578V49.1426H214.617V49.7878H213.001V53.5857H212.197Z" fill="#151515"/>
<path d="M215.495 55.4705V50.145C215.495 49.9732 215.495 49.7977 215.477 49.6201C215.459 49.4426 215.445 49.2651 215.422 49.0876H216.218L216.317 50.118H216.218C216.301 49.7859 216.507 49.4961 216.796 49.3056C217.11 49.1021 217.48 48.9983 217.856 49.0085C218.228 49.0004 218.595 49.096 218.914 49.2844C219.222 49.4752 219.466 49.7511 219.614 50.0774C219.79 50.4671 219.875 50.8902 219.864 51.3162C219.875 51.7434 219.79 52.1678 219.614 52.5588C219.467 52.8874 219.223 53.1654 218.914 53.3576C218.595 53.546 218.228 53.6417 217.856 53.6336C217.485 53.6424 217.119 53.5387 216.81 53.3364C216.523 53.1443 216.315 52.8596 216.22 52.5318H216.319V55.4705H215.495ZM217.658 52.9929C217.845 53.0005 218.032 52.9662 218.205 52.8927C218.377 52.8191 218.53 52.7083 218.653 52.5685C218.9 52.2829 219.022 51.8661 219.022 51.3162C219.022 50.7663 218.9 50.3514 218.653 50.0736C218.529 49.9358 218.375 49.8268 218.203 49.7547C218.031 49.6826 217.845 49.6492 217.658 49.6568C217.472 49.6498 217.288 49.6836 217.118 49.7557C216.948 49.8278 216.796 49.9365 216.674 50.0736C216.425 50.3476 216.301 50.7618 216.301 51.3162C216.301 51.8706 216.423 52.288 216.667 52.5685C216.789 52.7097 216.942 52.8215 217.116 52.8952C217.289 52.9688 217.477 53.0022 217.666 52.9929H217.658Z" fill="#151515"/>
<path d="M11.1789 44.9416C11.0967 42.8946 12.6737 41.7969 13.3903 44.8059C14.1069 47.815 15.0803 54.5291 15.0803 54.5291C15.0803 54.5291 11.297 53.8665 11.3381 53.5978C11.3792 53.3291 11.1789 44.9416 11.1789 44.9416Z" fill="#00578A"/>
<path d="M7.5428 40.0185C7.44217 37.4912 9.39804 36.1473 10.2857 39.8502C11.1733 43.5531 12.3861 51.8362 12.3861 51.8362C12.3861 51.8362 7.68987 51.0201 7.74148 50.6886C7.79308 50.3571 7.5428 40.0185 7.5428 40.0185Z" fill="#007D99"/>
<path d="M3.88815 36.3918C3.77708 33.5808 5.90761 32.0807 6.8719 36.2053C7.83619 40.3298 9.15641 49.5475 9.15641 49.5475C9.15641 49.5475 3.0425 43.1588 3.09803 42.7959C3.15357 42.433 3.88815 36.3918 3.88815 36.3918Z" fill="#01A6A0"/>
<path d="M28.5765 73.1089C27.7136 59.5526 13.6377 59.4668 7.59469 54.6587C1.55169 49.8507 0.224122 37.5779 0.596863 34.8243C0.969603 32.0707 2.43248 30.7105 3.64772 34.5564C4.86295 38.4023 5.99904 45.3285 10.5843 48.5288C15.1695 51.729 23.7607 52.1501 18.8714 48.6155C12.4888 44.0014 13.5941 39.5417 15.1101 38.609C16.2695 37.8959 18.9837 42.8887 22.7647 44.9278C26.5457 46.9669 32.2024 48.5709 34.8193 54.923C37.7941 62.1439 28.5765 73.1089 28.5765 73.1089Z" fill="#00C6BF"/>
<path d="M57.2616 6.02657C53.0957 3.18106 46.1738 1.55289 39.3819 5.92452C36.6284 8.548 34.3134 12.1029 32.7531 16.7196C32.7531 16.7196 24.768 7.92777 11.9924 12.723C-0.783225 17.5183 0.00966736 31.3707 0.00966736 31.3707C0.00966736 31.3707 3.68607 20.0908 15.9798 19.3763C28.2736 18.6617 34.6748 30.5144 34.6748 30.5144C34.6748 30.5144 36.2357 18.5059 47.3848 15.6477C57.667 13.0216 63.8547 21.104 61.2542 31.1641C65.6852 20.9253 63.8827 10.5462 57.2616 6.02657Z" fill="#00578A"/>
<path d="M52.2383 48.9835C52.2383 48.9835 41.7129 36.4876 23.1562 43.1603C23.1562 43.1603 32.6394 42.9591 36.9585 53.7892C39.6462 60.528 33.1234 70.4159 33.1234 70.4159C33.1234 70.4159 44.5923 60.9892 52.2383 48.9835Z" fill="#00578A"/>
<path d="M71.3442 8.42509C65.0524 -0.83138 49.3254 -3.57641 39.3519 5.89651C46.1489 1.53438 53.076 3.15902 57.245 5.99835C63.8787 10.5082 65.6647 20.8545 61.2508 31.0863C60.9792 32.1239 60.6312 33.1402 60.2098 34.1268C55.9591 44.1294 50.8869 50.4956 50.8869 50.4956C43.4648 61.7001 32.8516 70.5508 32.8516 70.5508C73.9601 53.3264 82.1291 24.305 71.3442 8.42509Z" fill="#00C6BF"/>
<path style="mix-blend-mode:multiply" opacity="0.29" d="M56.6432 16.5774C62.149 19.9568 62.2495 26.7863 61.136 31.1015C65.5441 20.8723 63.7468 10.5285 57.1448 6.0198C52.9908 3.18118 46.0888 1.55696 39.3164 5.91799C44.7872 2.73314 57.5228 0.146558 56.6432 16.5774Z" fill="#00578A"/>
<path style="mix-blend-mode:multiply" opacity="0.29" d="M48.4875 45.6426C46.2541 53.6628 37.1416 66.439 33.1211 70.4161C33.1211 70.4161 42.8591 62.485 52.2398 48.7616C51.0784 47.6922 49.8276 46.5337 48.4875 45.6426Z" fill="#00578A"/>
</svg>
